<svg xmlns="http://www.w3.org/2000/svg" enable-background="new 0 0 32 32" viewBox="0 0 32 32"><path d="M12 13h-1.9854c.9287-2.6895 1.7217-3.9775 4.3604-5.0771.4404-.1836.6895-.6523.5957-1.1201C14.877 6.3359 14.4668 6 13.9902 6c-.001 0-.001 0-.002 0-5.5049.0098-8.667 2.2168-10.9092 7.6113C2.3633 15.3057 2 17.1191 2 19c0 2.8926.875 4.4678 2.209 6.541C4.3926 25.8271 4.71 26 5.0498 26H12c1.6543 0 3-1.3457 3-3v-7C15 14.3457 13.6543 13 12 13zM27 13h-1.9854c.9287-2.6895 1.7217-3.9775 4.3604-5.0771.4404-.1836.6895-.6523.5957-1.1201C29.877 6.3359 29.4668 6 28.9902 6c-.001 0-.001 0-.002 0-5.5049.0098-8.667 2.2168-10.9092 7.6113C17.3633 15.3057 17 17.1191 17 19c0 2.8926.875 4.4678 2.209 6.541C19.3926 25.8271 19.71 26 20.0498 26H27c1.6543 0 3-1.3457 3-3v-7C30 14.3457 28.6543 13 27 13z"/></svg>