<svg xmlns="http://www.w3.org/2000/svg" enable-background="new 0 0 50 50" viewBox="0 0 50 50"><polygon fill="#91684B" points="40.564 38.547 40.564 40.471 25.478 49 25.478 47.076"/><polygon fill="#A57859" points="25.478 47.076 25.478 49 9.436 39.917 9.436 37.992"/><polygon fill="#A9C838" points="40.564 38.547 25.478 47.076 9.436 37.992 24.534 29.963"/><polygon fill="#73AE43" points="40.564 37.255 40.564 38.569 25.478 47.098 25.478 45.783"/><polygon fill="#80BC41" points="25.478 45.783 25.478 47.098 9.436 38.014 9.436 36.7"/><polygon fill="#A9C838" points="40.564 37.255 25.478 45.783 9.436 36.7 24.534 28.171"/><path fill="#91684B" d="M27.7909,15.7343c-0.3996,2.7734-1.8099,12.7392-0.7991,21.8827c-0.0118,0.0115,0,0.0115,0,0.0115
					c0.0117,0.2353,0.047,0.4702,0.0705,0.7053c0,1.6177-4.1721,1.6177-4.1721,0c-0.0117-0.1525-0.0117-0.2939-0.0117-0.4465
					c-0.2115-9.637,1.9978-19.5208,2.609-22.2821c0.0587-0.2238,0.094-0.4,0.1293-0.5526h2.2565
					C27.8615,15.2287,27.8262,15.4525,27.7909,15.7343z"/><path fill="#704E2C" d="M27.0623 38.3337c0 1.6448-4.1721 1.6448-4.1721 0-.0117-.1525-.0117-.2939-.0117-.4465.3408-.1297.2585-.5997.2468-.917.0823.2703.1176.5641.2351.8114.5994 0 .4231-1.4811.4348-1.834.2233.2353.3056.7288.3643 1.0461.0235.1176.0118.5526.1058.6347.3878.3879.4113-.6817.4113-.8108.1763.1762.2586.7638.5053.8108.3056.0591.2703-.5991.2703-.7873.2115.0706.3878.6226.5993.6111.2821-.0235.1998-.5761.2116-.7402.4348.1412.5171.552.7286.9049-.0118.0115 0 .0115 0 .0115C27.0035 37.8637 27.0388 38.0986 27.0623 38.3337zM23.5546 35.2237c0-.427.058-.7992.0942-1.203.0262-.2926-.0352-.5902.0338-.8746.0885-.3645.115-.6361.0812-1.0235-.0345-.3952.1623-3.3817.1659-3.4776.0075-.2014-.1333-.8695.1886-.8279.0475.1198.0561.363.0686.4958.0347.3685.1226.7243.1407 1.0947.0861 1.7586-.3862 1.998-.1587 4.191.0435.4193-.1345.8221-.2413 1.2175-.0554.2052-.098.458-.2157.6397C23.7091 35.3581 23.6866 35.2492 23.5546 35.2237zM25.2884 35.8254c.2395-.3475.1939-.7891.3615-1.1638.1623-.3627.2782-.5318.1971-.9602-.069-.3645-.5128-1.8315.0671-1.9625.1465.3595.1252.7718.268 1.1381.1785.458.0603 1.008.1276 1.5306.0586.4548.143.7372.0352 1.1898-.1534.6438-.24.808-.8273.847C25.5189 36.142 25.3017 35.9456 25.2884 35.8254z" opacity=".5"/><path fill="#704E2C" d="M25.7379 29.1337c0 0-.4385.895.1047 1.3514.5432.4564 7.6-5.512 7.9862-6.6004C33.8287 23.8847 26.6638 29.2569 25.7379 29.1337zM24.3352 25.6212c0 0-.0403.9958-.7352 1.1387-.6949.1429-4.0607-8.4648-3.8823-9.6058C19.7176 17.154 23.4622 25.2888 24.3352 25.6212z"/><path fill="#73AE43" d="M32.8507,15.336c0.9605,4.3328-2.8147,8.1079-7.1475,7.1475c-2.1834-0.484-3.9453-2.2459-4.4293-4.4293
		c-0.9605-4.3328,2.8147-8.1079,7.1475-7.1475C30.6048,11.3907,32.3667,13.1526,32.8507,15.336z"/><path fill="#80BC41" d="M30.1235,13.481c0.9605,4.3328-2.8147,8.1079-7.1475,7.1475c-2.1834-0.484-3.9453-2.2459-4.4293-4.4293
		c-0.9605-4.3328,2.8147-8.1079,7.1475-7.1475C27.8777,9.5357,29.6395,11.2976,30.1235,13.481z"/><path fill="#589441" d="M39.6171,13.3194c0.9605,4.3328-2.8147,8.1079-7.1475,7.1475c-2.1834-0.484-3.9453-2.2459-4.4293-4.4293
		c-0.9605-4.3328,2.8147-8.1079,7.1475-7.1475C37.3712,9.3742,39.1331,11.136,39.6171,13.3194z"/><path fill="#80BC41" d="M35.124,6.424c0.9605,4.3328-2.8147,8.1079-7.1475,7.1475c-2.1834-0.484-3.9453-2.2459-4.4293-4.4293
		c-0.9605-4.3328,2.8147-8.1079,7.1475-7.1475C32.8781,2.4787,34.64,4.2406,35.124,6.424z"/><path fill="#73AE43" d="M25.4991,5.5801c0.9605,4.3328-2.8147,8.1079-7.1475,7.1475c-2.1834-0.484-3.9453-2.2459-4.4293-4.4293
		c-0.9605-4.3328,2.8147-8.1079,7.1475-7.1475C23.2533,1.6349,25.0152,3.3967,25.4991,5.5801z"/><path fill="#80BC41" d="M36.2274,23.8077c0.4363,2.3016-1.5441,4.282-3.8458,3.8458c-1.2786-0.2424-2.3244-1.2882-2.5668-2.5668
		c-0.4363-2.3016,1.5441-4.282,3.8458-3.8458C34.9391,21.4832,35.985,22.5291,36.2274,23.8077z"/><path fill="#A9C838" d="M23.2457,15.3974c0.9605,4.3328-2.8147,8.1079-7.1475,7.1475c-2.1834-0.484-3.9453-2.2459-4.4293-4.4293
		c-0.9605-4.3328,2.8147-8.1079,7.1475-7.1475C20.9998,11.4522,22.7617,13.214,23.2457,15.3974z"/></svg>